<?xml version="1.0" encoding="utf-8"?><svg viewBox="0 0 512 512" xmlns="http://www.w3.org/2000/svg" xmlns:xlink="http://www.w3.org/1999/xlink"><style>:root>svg{display:none}:root>svg:target{display:block}</style><svg viewBox="0 0 512 512" id="ok" xmlns="http://www.w3.org/2000/svg"><path fill="#BB6400" stroke="#BB6400" opacity=".878" d="M245.5 0l8.5.5-8.5.5V0zM258.5 0l8.5.5-8.5.5V0zM236.5 1l2.5.5-2.5.5V1zM273.5 1l2.5.5-2.5.5V1zM183.5 20l-1 2 1-2zM328.5 20l1 2-1-2zM180.5 22l-1 2 1-2zM331.5 22l1 2-1-2zM177.5 24l-1 2 1-2zM334.5 24l1 2-1-2zM174.5 26l-2 3 2-3zM337.5 26l2 3-2-3zM169.5 30l-2 3 2-3zM342.5 30l2 3-2-3zM162.5 36l-8 9 8-9zM349.5 36l7 8-7-8zM151.5 48l-2 3 2-3zM360.5 48l2 3-2-3zM147.5 53l-1 2 1-2zM364.5 53l1 2-1-2zM144.5 57l-1 2 1-2zM367.5 57l1 2-1-2zM142.5 60l-1 2 1-2zM369.5 60l1 2-1-2zM250.5 65l11.5.5-11.5.5v-1zM218.5 76l-1 2 1-2zM293.5 76l1 2-1-2zM214.5 79l-1 2 1-2zM297.5 79l1 2-1-2zM209.5 83l-3 4 3-4zM203.5 90l-1 2 1-2zM308.5 90l1 2-1-2zM200.5 94l-1 2 1-2zM388.5 106l.5 2.5h-1l.5-2.5zM122.5 112l.5 2.5h-1l.5-2.5zM121.5 122l.5 15.5h-1l.5-15.5zM390.5 123l.5 13.5h-1l.5-13.5zM189.5 125l.5 8.5h-1l.5-8.5zM322.5 126l.5 6.5h-1l.5-6.5zM122.5 144l.5 2.5h-1l.5-2.5zM389.5 144l.5 2.5h-1l.5-2.5zM199.5 163l1 2-1-2zM312.5 163l-1 2 1-2zM201.5 166l2 3-2-3zM309.5 167l-1 2 1-2zM208.5 174l1 2-1-2zM213.5 178l1 2-1-2zM298.5 178l-1 2 1-2zM217.5 181l1 2-1-2zM294.5 181l-1 2 1-2zM222.5 184l1 2-1-2zM250.5 193l11.5.5-11.5.5v-1zM139.5 194l1 2-1-2zM141.5 197l1 2-1-2zM370.5 197l-1 2 1-2zM368.5 200l-1 2 1-2zM145.5 203l1 2-1-2zM365.5 204l-1 2 1-2zM148.5 207l2 3-2-3zM362.5 208l-2 3 2-3zM154.5 214l9 10-9-10zM357.5 214l-9 10 9-10zM344.5 226l-2 3 2-3zM168.5 227l2 3-2-3zM173.5 231l1 2-1-2zM338.5 231l-1 2 1-2zM176.5 233l1 2-1-2zM335.5 233l-1 2 1-2zM182.5 237l1 2-1-2zM329.5 237l-1 2 1-2zM236.5 257l2.5.5-2.5.5v-1zM273.5 257l2.5.5-2.5.5v-1zM245.5 258l7.5.5-7.5.5v-1zM259.5 258l7.5.5-7.5.5v-1zM109.5 264l-5 6 5-6zM402.5 264l6 7-6-7zM153.5 266l1 2-1-2zM358.5 266l-1 2 1-2zM156.5 268l1 2-1-2zM409.5 272l1 2-1-2zM96.5 287l.5 2.5h-1l.5-2.5zM415.5 287l.5 8.5h-1l.5-8.5zM96.5 293l.5 2.5h-1l.5-2.5zM229.5 296l2.5.5-2.5.5v-1zM280.5 296l2.5.5-2.5.5v-1zM237.5 297l4.5.5-4.5.5v-1zM270.5 297l4.5.5-4.5.5v-1zM99.5 303l1 2-1-2zM101.5 306l1 2-1-2zM410.5 306l-2 3 2-3zM402.5 314l-2 3 2-3zM110.5 315l2 3-2-3zM115.5 319l1 2-1-2zM396.5 319l-1 2 1-2zM130.5 329l1 2-1-2zM133.5 331l1 2-1-2zM378.5 331l-1 2 1-2zM138.5 334l1 2-1-2zM303.5 357l2.5.5-2.5.5v-1zM297.5 358l2.5.5-2.5.5v-1zM221.5 359l2.5.5-2.5.5v-1zM289.5 359l3.5.5-3.5.5v-1zM282 360l2 .5-1 1 8.5 9.5-9.5-9.5V360zM223.5 367l-14 15 14-15zM302.5 380l13 14-13-14zM197.5 392l-15 16 15-16zM326.5 403l14 15-14-15zM170.5 418l-14 15 14-15zM256.5 426l11 12-11-12zM351.5 427l13 14-13-14zM245.5 436l-16 17 16-17zM144.5 443l-18 19 18-19zM279.5 448l15 16-15-16zM375.5 450l10 11-10-11zM217.5 463l-16 17 16-17zM307.5 475l19 20-19-20zM188.5 491l-12 13 12-13zM387.5 493l-1 2 1-2zM127.5 496l1 2-1-2zM385.5 496l-2 3 2-3zM133.5 502l2 3-2-3zM379.5 502l-2 3 2-3zM337.5 504l1 2-1-2zM137.5 505l1 2-1-2zM173.5 505l-1 2 1-2zM375.5 505l-1 2 1-2zM153.5 511l6.5.5-6.5.5v-1zM352.5 511l3.5.5-3.5.5v-1zM357.5 511l4.5.5-4.5.5v-1z"/><path fill="#BB6400" stroke="#BB6400" d="M254.5 0q7.1 2.4 18 1l1 1 11 1 28 9q28.3 13.2 47.5 35.5 17.3 19.7 26 48l4 20v28l-4 20-8 21q-12.6 24.4-32.5 41.5-18.1 15.9-43 25l-23 6-26 2-1-1h-13l-17-3-23-8q-29.2-13.3-48.5-36.5-16.8-19.2-25-47l-4-20v-28l4-20 9-23q12.5-23 31.5-39.5 18.1-15.9 43-25l23-6 21-1 1-1zM251 65l-1 1-11 1-13 5-16 11q-11 10-17 25l-4 18q0 15 4 26 5 13 15 23 8 8 20 13l11 4 11 1 1 1h11l18-4 14-7 10-8 9-11 6-12 4-19-1-14-2-8-10-19q-10-13-25-21l-16-5-18-1z"/><path fill="#BB6400" stroke="#BB6400" d="M124.5 258h8l11 3 25 16q16.9 9.1 37 15l32 6h37l1-1h7l16-3 26-8q23.4-9.6 42-24l13-4h8q14.6 2.9 21.5 13.5l6 13v13q-3.9 10.1-11.5 16.5-21.8 19.2-51 31l-29 9-27 5-14.5 1v1.5l9.5 9.5 95.5 91.5q5.3 6.2 5 18-2.6 13.9-11.5 21.5l-13 8-11 2-10-2-10-6-80-78-82 79-12 6h-13q-12.9-3.6-20.5-12.5l-7-12-1-13 4-10 30.5-30.5 75.5-72.5-37.5-5.5-39-12q-19.6-8.9-36-21L103 308.5q-6.2-6.3-7-18l5-16 10.5-11.5 13-5z"/><path fill="#C46A00" stroke="#C46A00" opacity=".29" d="M239.5 0l5.5.5-5.5.5V0zM267.5 0l5.5.5-5.5.5V0zM232.5 1l3.5.5-3.5.5V1zM276.5 1l3.5.5-3.5.5V1zM227.5 2l2.5.5-2.5.5V2zM282.5 2l2.5.5-2.5.5V2zM222.5 3l2.5.5-2.5.5V3zM287.5 3l2.5.5-2.5.5V3zM206.5 8l1.5.5-3.5 1.5V9l2-1zM304.5 8l3.5 1.5-1.5.5-2-2zM201.5 10l1.5.5-3.5 1.5v-1l2-1zM309.5 10l3.5 1.5-1.5.5-2-2zM189.5 16l-1 2-4 2 1-2 4-2zM322.5 16l5.5 3.5-1.5-.5q-4-.5-4-3zM182.5 20l-1 2 1-2zM329.5 20l1 2-1-2zM179.5 22l-1 2 1-2zM332.5 22l1 2-1-2zM176.5 24l-1 2 1-2zM335.5 24l1 2-1-2zM173.5 26l-3 4-16 14 8-9 11-9zM338.5 26L358 43.5l5 6-6-5-7.5-8.5q-7.7-4.2-11-10zM153.5 45l-4.5 5.5-5.5 7.5 1.5-2.5 8.5-10.5zM363.5 51l5.5 6.5-3-2-2.5-4.5zM142.5 59l-1 2 1-2zM369.5 59l1 2-1-2zM140.5 62l-.5 1.5-1.5 2.5.5-1.5 1.5-2.5zM371.5 62l2.5 3.5-2-1-.5-2.5zM245.5 66l3.5.5-3.5.5v-1zM262.5 66l4.5.5-4.5.5v-1zM137.5 67l-.5 1.5-5.5 11.5-.5-1.5 6.5-11.5zM240.5 67l2.5.5-2.5.5v-1zM269.5 67l2.5.5-2.5.5v-1zM374.5 67l6.5 12.5h-1L374.5 67zM236.5 68l2.5.5-2.5.5v-1zM273.5 68l2.5.5-2.5.5v-1zM277.5 69l3.5 1.5-1.5.5-2-2zM282.5 71l8.5 4.5-1.5-.5-7-3v-1zM226.5 72l1.5.5-6.5 3.5 1-2 4-2zM219.5 76l-1 2 1-2zM292.5 76L308 89.5l6 9-2-1q-4.6-9.4-12.5-15.5-5.5-2.1-7-6zM216.5 78l-2 3 2-3zM212.5 81l-8 9 8-9zM381.5 81l1.5 3.5h-1l-.5-3.5zM203.5 91l-2 3 2-3zM200.5 95l-1 2 1-2zM386.5 95l.5 2.5h-1l.5-2.5zM387.5 99l.5 2.5h-1l.5-2.5zM197.5 100l-.5 1.5-1.5 3.5-.5-1.5 2.5-3.5zM123.5 103l.5 2.5h-1l.5-2.5zM388.5 103l.5 2.5h-1l.5-2.5zM194.5 106l.5 1.5-1.5 2.5-.5-1.5 1.5-2.5zM317.5 106l1.5 3.5h-1l-.5-3.5zM122.5 108l.5 3.5h-1l.5-3.5zM389.5 108l.5 4.5h-1l.5-4.5zM192.5 111l.5 2.5h-1l.5-2.5zM319.5 111l.5 2.5h-1l.5-2.5zM121.5 115l.5 6.5h-1l.5-6.5zM191.5 115l.5 2.5h-1l.5-2.5zM320.5 115l.5 2.5h-1l.5-2.5zM390.5 116l.5 6.5h-1l.5-6.5zM190.5 120l.5 4.5h-1l.5-4.5zM321.5 120l.5 5.5h-1l.5-5.5zM190.5 134l.5 4.5h-1l.5-4.5zM321.5 134l.5 4.5h-1l.5-4.5zM390.5 137l.5 6.5h-1l.5-6.5zM121.5 138l.5 5.5h-1l.5-5.5zM191.5 141l.5 2.5h-1l.5-2.5zM320.5 141l.5 2.5h-1l.5-2.5zM319.5 145l.5 2.5h-1l.5-2.5zM122.5 147l.5 3.5h-1l.5-3.5zM389.5 147l.5 3.5h-1l.5-3.5zM318.5 149l.5 1.5-1.5 2.5-.5-1.5 1.5-2.5zM123.5 153l.5 2.5h-1l.5-2.5zM388.5 153l.5 2.5h-1l.5-2.5zM195.5 154l3.5 6.5-2-1-1.5-5.5zM315.5 156l.5 1.5-2 1 1.5-2.5zM124.5 158l.5 2.5h-1l.5-2.5zM313.5 160l-.5 1.5-1.5 2.5.5-1.5 1.5-2.5zM199.5 162l1 2-1-2zM126.5 165l.5 2.5h-1l.5-2.5zM201.5 165l2 3-2-3zM310.5 165l-2.5 3.5-8.5 9.5 7.5-8.5 3.5-4.5zM127.5 169l1.5 3.5h-1l-.5-3.5zM204.5 169l8 9-8-9zM214.5 178l2 3-2-3zM297.5 178l-2 3 2-3zM131.5 179l2.5 5.5h-1l-1.5-5.5zM380.5 179l.5 1.5-6.5 11.5.5-1.5 5.5-11.5zM218.5 181l1 2-1-2zM293.5 181l-1 2 1-2zM290.5 183l-1 2-7 3v-1l8-4zM223.5 184l6.5 3.5-1.5.5q-4.6-1.2-5-4zM134.5 186l4.5 7.5-2-1-2.5-6.5zM236.5 190l2.5.5-2.5.5v-1zM273.5 190l2.5.5-2.5.5v-1zM240.5 191l2.5.5-2.5.5v-1zM269.5 191l2.5.5-2.5.5v-1zM245.5 192l3.5.5-3.5.5v-1zM263.5 192l3.5.5-3.5.5v-1zM373.5 193l-.5 1.5-1.5 2.5.5-1.5 1.5-2.5zM139.5 195l5.5 7.5-3-2-2.5-5.5zM370.5 198l-1 2 1-2zM368.5 201l-1.5 2.5-8.5 10.5 4.5-5.5 5.5-7.5zM145.5 204l2 3-2-3zM148.5 208l15 16 6.5 5.5-5.5-4.5-11.5-10.5-4.5-6.5zM357.5 215l-8 9 8-9zM347.5 224l-5 6-4 3 3-4 6-5zM171.5 230l2 3-2-3zM175.5 233l7.5 5.5-1.5-.5q-5-1.5-6-5zM336.5 233l-1 2 1-2zM333.5 235l-2 3-2 1 1-2 3-2zM184.5 239l5.5 3.5-1.5-.5q-4-.5-4-3zM327.5 239l-1 2-4 2 1-2 4-2zM199.5 247l3.5 1.5-1.5.5-2-2zM311.5 247l1.5.5-3.5 1.5v-1l2-1zM204.5 249l3.5 1.5-1.5.5-2-2zM222.5 255l2.5.5-2.5.5v-1zM287.5 255l2.5.5-2.5.5v-1zM227.5 256l2.5.5-2.5.5v-1zM282.5 256l2.5.5-2.5.5v-1zM124.5 257l8.5.5-8.5.5v-1zM232.5 257l3.5.5-3.5.5v-1zM276.5 257l3.5.5-3.5.5v-1zM380.5 257l6.5.5-6.5.5v-1zM119.5 258l2.5.5-2.5.5v-1zM135.5 258l2.5.5-2.5.5v-1zM239.5 258l5.5.5-5.5.5v-1zM267.5 258l5.5.5-5.5.5v-1zM374.5 258l2.5.5-2.5.5v-1zM114.5 260l1.5.5-2.5 1.5 1-2zM368.5 260l1.5.5-3.5 1.5v-1l2-1zM396.5 260q8.1 2.9 12.5 9.5l-6.5-5.5-6-3v-1zM111.5 262l-1 2 1-2zM149.5 263l3.5 2.5-1.5-.5-2-2zM362.5 263l-1 2-2 1 1-2 2-1zM108.5 264l-4.5 5.5-3.5 5.5.5-1.5 7.5-9.5zM154.5 266l1 2-1-2zM357.5 266l-2 3-8 5 1-2 9-6zM157.5 268l7.5 5.5-1.5-.5q-5-1.5-6-5zM409.5 271l1 2-1-2zM166.5 274l14.5 7.5-1.5.5-12-6-1-2zM345.5 274l-1 2-4 2 1-2 4-2zM99.5 276l.5 1.5-1.5 2.5-.5-1.5 1.5-2.5zM335.5 279l1.5.5-7.5 3.5v-1l6-3zM96.5 284l.5 2.5h-1l.5-2.5zM324.5 284l1.5.5-3.5 1.5v-1l2-1zM415.5 284l.5 2.5h-1l.5-2.5zM203.5 290l2.5.5-2.5.5v-1zM215.5 293l2.5.5-2.5.5v-1zM294.5 293l2.5.5-2.5.5v-1zM220.5 294l2.5.5-2.5.5v-1zM289.5 294l2.5.5-2.5.5v-1zM225.5 295l3.5.5-3.5.5v-1zM283.5 295l3.5.5-3.5.5v-1zM96.5 296l.5 2.5h-1l.5-2.5zM232.5 296l4.5.5-4.5.5v-1zM275.5 296l4.5.5-4.5.5v-1zM242.5 297l11.5.5-11.5.5v-1zM258.5 297l11.5.5-11.5.5v-1zM413.5 302l-.5 1.5-1.5 2.5.5-1.5 1.5-2.5zM99.5 304l12.5 13.5-12-11-.5-2.5zM410.5 307l-10 11-4 3 3-4 11-10zM113.5 318l2 3-2-3zM117.5 321l13.5 9.5-1.5-.5-10-6-2-3zM394.5 321l-2 3-11 7 1-2 12-8zM132.5 331l1 2-1-2zM379.5 331l-1 2 1-2zM135.5 333l3.5 2.5-1.5-.5-2-2zM376.5 333l-1 2-2 1 1-2 2-1zM371.5 336l-1 2-7 3v-1l8-4zM142.5 337l6.5 3.5-1.5.5q-4.6-1.2-5-4zM356.5 343l1.5.5-3.5 1.5v-1l2-1zM162.5 346l3.5 1.5-1.5.5-2-2zM170.5 349l2.5.5-2.5.5v-1zM336.5 350l2.5.5-2.5.5v-1zM325.5 353l2.5.5-2.5.5v-1zM189.5 354l2.5.5-2.5.5v-1zM321.5 354l2.5.5-2.5.5v-1zM193.5 355l2.5.5-2.5.5v-1zM316.5 355l2.5.5-2.5.5v-1zM199.5 356l2.5.5-2.5.5v-1zM311.5 356l2.5.5-2.5.5v-1zM204.5 357l2.5.5-2.5.5v-1zM306.5 357l2.5.5-2.5.5v-1zM210.5 358l3.5.5-3.5.5v-1zM300.5 358l3.5.5-3.5.5v-1zM217.5 359l3.5.5-3.5.5v-1zM293.5 359l3.5.5-3.5.5v-1zM224.5 360q4.5-1 5.5 1.5L198.5 392l25-26 5.5-4.5-4.5-.5v-1zM284.5 360l4.5.5-5 1 17.5 18.5-18.5-18.5 1.5-1.5zM303.5 380l22 23-22-23zM196.5 392l-25 26-45.5 43.5-1.5 2.5.5-1.5 19.5-20.5 52-50zM327.5 403l23 24-23-24zM255.5 427l11.5 10.5-10.5-9.5-26 25 25-26zM352.5 427l22 23-22-23zM268.5 438l25 26-25-26zM376.5 450l9 10-9-10zM228.5 453l-26 27 26-27zM386.5 461l4.5 7.5h-1l-3.5-7.5zM295.5 464l30 31-30-31zM391.5 470l.5 2.5h-1l.5-2.5zM120.5 473l.5 9.5h-1l.5-9.5zM392.5 476l.5 3.5h-1l.5-3.5zM200.5 480l-23 24 23-24zM391.5 483l.5 2.5h-1l.5-2.5zM122.5 488q4 10.5 12.5 16.5l-9-8-4-7 .5-1.5zM387.5 494l-1 2 1-2zM327.5 495q6.4 9.6 17.5 14.5l-1.5.5q-10.7-5.5-16-15zM385.5 497l-7 8 7-8zM175.5 504l-3 4-5 2v-1l8-5zM136.5 505l1 2-1-2zM376.5 505l-1 2 1-2zM373.5 507l-1 2-1.5-.5 2.5-1.5zM149.5 511l3.5.5-3.5.5v-1zM160.5 511l2.5.5-2.5.5v-1zM349.5 511l2.5.5-2.5.5v-1zM362.5 511l2.5.5-2.5.5v-1z"/></svg><svg viewBox="0 0 24 24" id="phone" xmlns="http://www.w3.org/2000/svg"><path d="M22.707 17.605l-2.331-2.331a3.294 3.294 0 00-5.56 1.685c-3.843-.718-7.581-4.441-7.814-7.769a3.295 3.295 0 001.724-5.567l-2.33-2.33a3.295 3.295 0 00-4.66 0c-6.99 6.99 13.98 27.962 20.97 20.97a3.296 3.296 0 000-4.659z"/></svg><svg viewBox="0 0 512 512" id="vk" xmlns="http://www.w3.org/2000/svg"><path fill="#C06700" stroke="#C06700" opacity=".467" d="M14.5 106l65.5.5-65.5.5v-1zM192.5 106l95.5.5-95.5.5v-1zM422.5 106l66.5.5-66.5.5v-1zM9.5 107l2.5.5-4.5 1.5v-1l2-1zM82.5 107l2.5.5-2.5.5v-1zM289.5 107l6.5 3.5 2 4h-1l-2-4.5-5.5-2v-1zM418.5 107l2.5.5-2.5.5v-1zM490.5 107l2.5.5-2.5.5v-1zM86.5 108l8.5 6.5 1 2-2-1-3.5-4.5q-4.7-.8-4-3zM187.5 108l-1 2-2.5 1.5-2.5 6.5-.5-2.5 4.5-6.5 2-1zM415.5 108l1.5.5q-6.6 1.9-10 7l-4.5 8.5-.5-1.5q3.3-7.7 9.5-12.5l4-2zM494.5 108l5.5 3.5q3.5 4 2 13h-1q1.3-9.6-2-13.5-5.1-.5-4.5-3zM5.5 109L2 113.5.5 119l-.5-3.5 5.5-6.5zM298.5 116l.5 3.5h-1l.5-3.5zM181.5 120l2.5 7.5 12 16-2-1-11-15q-3-2.7-1.5-7.5zM299.5 121l.5 119.5h-1l.5-119.5zM98.5 122l1.5 3.5h-1l-.5-3.5zM.5 126l.5 4.5H0l.5-4.5zM100.5 127l1.5 3.5h-1l-.5-3.5zM400.5 127l.5 1.5-4.5 8.5-.5-1.5 4.5-8.5zM499.5 129l.5 2.5-2.5 5.5-.5-1.5 2.5-6.5zM1.5 132l.5 3.5H1l.5-3.5zM103.5 135l2.5 6.5h-1l-1.5-6.5zM2.5 137l.5 2.5H2l.5-2.5zM496.5 138l.5 1.5-5.5 10.5-.5-1.5 5.5-10.5zM3.5 141l1.5 5.5H4l-.5-5.5zM106.5 143l1.5 3.5h-1l-.5-3.5zM392.5 144l.5 1.5-3.5 5.5.5-1.5 2.5-5.5zM108.5 148l1.5 3.5h-1l-.5-3.5zM198.5 149l2.5 7.5h-1l-1.5-7.5zM6.5 151l2.5 7.5H8L6.5 151zM490.5 151l-.5 1.5-22 39-44 64-3.5 7.5-.5-1.5 40-59 30.5-51.5zM110.5 153l1.5 3.5h-1l-.5-3.5zM386.5 156l-.5 1.5-5.5 10.5.5-1.5 5.5-10.5zM112.5 158l3.5 7.5h-1l-2.5-7.5zM201.5 158l.5 2.5h-1l.5-2.5zM202.5 163l.5 4.5h-1l.5-4.5zM11.5 166l1.5 3.5h-1l-.5-3.5zM116.5 167l3.5 7.5h-1l-2.5-7.5zM379.5 169l-.5 1.5-2.5 4.5.5-1.5 2.5-4.5zM13.5 171l3.5 8.5h-1l-2.5-8.5zM203.5 171l.5 88.5h-1l.5-88.5zM375.5 176l-.5 1.5-9.5 15.5.5-1.5 9.5-15.5zM121.5 178l11.5 22.5-2-1-10-20 .5-1.5zM17.5 181l1.5 3.5h-1l-.5-3.5zM19.5 186l3.5 7.5h-1l-2.5-7.5zM364.5 194l-.5 1.5q-14.6 24.9-34.5 44.5l-10 8 2-3 13.5-11.5q16.3-18.2 29.5-39.5zM23.5 195L40 227.5l-2-1-15-30 .5-1.5zM133.5 202q12.3 23.7 27.5 44.5l20.5 22.5 7.5 4.5-1.5.5q-11.6-6.9-19.5-17.5-20.7-24.7-34.5-54.5zM41.5 231l4.5 7.5-2-1-2.5-6.5zM46.5 240l6.5 10.5-2-1-4.5-9.5zM300.5 242q1 6 5.5 8.5l-1.5-.5q-2.2.8-1.5-1.5-4.2-1.9-2.5-6.5zM317.5 248l-1 2-4 1v-1l5-2zM307.5 251l3.5.5-3.5.5v-1zM53.5 252l7.5 11.5-2-1-5.5-10.5zM202.5 263l.5 3.5h-1l.5-3.5zM419.5 264l.5 3.5h-1l.5-3.5zM61.5 265l8.5 12.5-2-1-6.5-11.5zM200.5 271l-2 3 2-3zM190.5 274l6.5.5-6.5.5v-1zM422.5 274l55.5 58.5q14.9 16.6 27 36l-2-1-6-10-21-26-52-54-1.5-3.5zM70.5 279l31.5 43.5 27.5 28.5q17.9 16.1 39.5 28.5l-1.5-.5q-35.7-20.3-61.5-50.5-20.1-23.3-35.5-49.5zM306.5 316l2.5.5-7 4-.5 1.5-.5-1.5 5.5-4.5zM317.5 316l8.5 2.5-1.5.5-7-2v-1zM327.5 319l4.5 2.5-1.5-.5q-3.7-.3-3-2zM333.5 322q31.9 21.1 56.5 49.5l22.5 24.5 4.5 3.5-3.5-2.5-13.5-12.5-37.5-39.5q-12.6-11.9-28-21l-1-2zM300.5 323l.5 2.5h-1l.5-2.5zM299.5 328l.5 60.5h-1l.5-60.5zM505.5 370l4.5 8.5h-1l-3.5-8.5zM170.5 380l20.5 10.5-1.5.5-18-9-1-2zM511.5 383l.5 3.5h-1l.5-3.5zM192.5 391l3.5 1.5-1.5.5-2-2zM197.5 393l6.5 2.5-1.5.5-5-2v-1zM511.5 393l.5 2.5-3 5.5-6.5 3v-1l7.5-5.5 1.5-4.5zM297.5 394l.5 1.5-5 4 4.5-5.5zM208.5 397l5.5 1.5-2.5.5-3-1v-1zM215.5 399l10.5 2.5-3.5.5-7-2v-1zM291.5 400l-1 2-1.5-.5 2.5-1.5zM418.5 400l6.5 3.5-1.5.5q-4.6-1.2-5-4zM227.5 402l3.5.5-3.5.5v-1zM232.5 403l4.5.5-4.5.5v-1zM281.5 403l3.5.5-3.5.5v-1zM239.5 404l6.5.5-6.5.5v-1zM274.5 404l5.5.5-5.5.5v-1zM426.5 404l2.5.5-2.5.5v-1zM498.5 404l2.5.5-2.5.5v-1zM250.5 405l19.5.5-19.5.5v-1zM430.5 405l66.5.5-66.5.5v-1z"/><path fill="#BB6400" stroke="#BB6400" opacity=".996" d="M6.5 109l-1 2 1-2zM185.5 110l-1 2 1-2zM90.5 111l3 4-3-4zM411.5 111l-4 5 4-5zM3.5 112l-1 2 1-2zM94.5 116l1 2-1-2zM.5 119l.5 6.5H0l.5-6.5zM184.5 127l1 2-1-2zM187.5 131l2 3-2-3zM191.5 136l1 2-1-2zM193.5 139l1 2-1-2zM490.5 150l-1 2 1-2zM203.5 168l.5 2.5h-1l.5-2.5zM377.5 174l-1 2 1-2zM471.5 183l-1 2 1-2zM368.5 189l-1 2 1-2zM466.5 191l-1 2 1-2zM366.5 192l-1 2 1-2zM464.5 194l-1 2 1-2zM459.5 202l-1 2 1-2zM457.5 205l-1 2 1-2zM356.5 207l-1 2 1-2zM455.5 208l-1 2 1-2zM354.5 210l-2 3 2-3zM453.5 211l-1 2 1-2zM351.5 214l-1 2 1-2zM451.5 214l-1 2 1-2zM449.5 217l-1 2 1-2zM348.5 218l-2 3 2-3zM447.5 220l-1 2 1-2zM344.5 223l-2 3 2-3zM445.5 223l-1 2 1-2zM146.5 226l1 2-1-2zM340.5 228l-4 5 4-5zM41.5 230l1 2-1-2zM440.5 230l-1 2 1-2zM438.5 233l-1 2 1-2zM436.5 236l-1 2 1-2zM46.5 239l1 2-1-2zM434.5 239l-1 2 1-2zM328.5 240l-4 5 4-5zM156.5 241l1 2-1-2zM431.5 243l-1 2 1-2zM49.5 244l1 2-1-2zM158.5 244l1 2-1-2zM321.5 246l-1 2 1-2zM429.5 246l-1 2 1-2zM301.5 247l1 2-1-2zM161.5 248l1 2-1-2zM318.5 248l-1 2 1-2zM304.5 250l2.5 1.5-1.5.5-1-2zM426.5 250l-1 2 1-2zM53.5 251l1 2-1-2zM164.5 252l3 4-3-4zM424.5 253l-1 2 1-2zM169.5 258l11 12-11-12zM58.5 259l1 2-1-2zM203.5 260l.5 2.5h-1l.5-2.5zM61.5 264l1 2-1-2zM63.5 267l1 2-1-2zM182.5 270l1 2-1-2zM200.5 272l-1 2 1-2zM422.5 275l1 2-1-2zM70.5 278l1 2-1-2zM424.5 278l28 29-28-29zM77.5 288l1 2-1-2zM79.5 291l1 2-1-2zM81.5 294l1 2-1-2zM84.5 298l1 2-1-2zM86.5 301l1 2-1-2zM89.5 305l1 2-1-2zM91.5 308l2 3-2-3zM94.5 312l2 3-2-3zM458.5 313l9 10-9-10zM309.5 315l7.5.5-7.5.5v-1zM98.5 317l2 3-2-3zM303.5 317l-1 2 1-2zM102.5 322l3 4-3-4zM336.5 323l1 2-1-2zM339.5 325l1 2-1-2zM342.5 327l2 3-2-3zM471.5 327l4 5-4-5zM108.5 329l21 22-21-22zM346.5 330l2 3-2-3zM351.5 334l2 3-2-3zM478.5 335l3 4-3-4zM357.5 339l4 5-4-5zM483.5 341l3 4-3-4zM365.5 346l20 21-20-21zM488.5 347l2 3-2-3zM492.5 352l1 2-1-2zM133.5 353l3 4-3-4zM495.5 356l1 2-1-2zM139.5 358l2 3-2-3zM497.5 359l1 2-1-2zM144.5 362l1 2-1-2zM499.5 362l1 2-1-2zM148.5 365l1 2-1-2zM501.5 365l1 2-1-2zM151.5 367l1 2-1-2zM503.5 368l1 2-1-2zM390.5 372l8 9-8-9zM163.5 375l1 2-1-2zM168.5 378l1 2-1-2zM402.5 385l10 11-10-11zM511.5 387l.5 5.5h-1l.5-5.5zM296.5 395l-4 5 4-5zM415.5 397l2 3-2-3zM237.5 403l2.5.5-2.5.5v-1zM246.5 404l3.5.5-3.5.5v-1zM271.5 404l2.5.5-2.5.5v-1z"/><path fill="#BB6400" stroke="#BB6400" d="M14.5 107h65l9 3 5.5 5.5 4 7 18 47 20 40 22 35q9.8 14.2 22.5 25.5l8 5h9l3.5-2.5 3-10v-94l-4-18q-5.9-14.1-16-24-3-3-2-10l5.5-7.5 5-2h94q6.6.9 9.5 5.5l3 10v120q1.5 6.5 6.5 9.5 8 1 12-2 13.6-8.9 23.5-21.5l28-39q21.1-33.4 37-72l6.5-6.5 11-4h65l8 3 2.5 2.5q3.2 3.3 2 11l-4 13-13 26q-28.1 48.4-61 92l-4 8v7l5 9q38.6 35.4 71 77l14 23q3.3 5.7 2 16l-4.5 6.5-11 4h-64l-13-5-19.5-18.5-33.5-35.5q-16-15.5-36-27-7.7-4.3-20-4l-7.5 3.5-3 8v62q-1.4 8.1-7.5 11.5l-12 4-29 1-1-1-16-1-18-4q-24.9-7.1-45-19-37.3-21.7-64.5-53.5-43.6-53.4-76-118-13.8-27.7-24-59l-5-20v-13l3-5.5 10.5-4z"/></svg><svg viewBox="0 0 512 512" id="youtube" xmlns="http://www.w3.org/2000/svg"><path fill="#BF6600" stroke="#BF6600" opacity=".557" d="M139.5 80l58.5.5-58.5.5v-1zM314.5 80l58.5.5-58.5.5v-1zM101.5 81l24.5.5-24.5.5v-1zM385.5 81l24.5.5-24.5.5v-1zM80.5 82l13.5.5-13.5.5v-1zM417.5 82l13.5.5-13.5.5v-1zM68.5 83l8.5.5-8.5.5v-1zM434.5 83l9.5.5-9.5.5v-1zM61.5 84l4.5.5-4.5.5v-1zM446.5 84l4.5.5-4.5.5v-1zM56.5 85l3.5.5-3.5.5v-1zM452.5 85q9.1.4 14.5 4.5l-1.5.5q-4.7-3.8-13-4v-1zM52.5 86l2.5.5q-15.3 3.7-24 14L19.5 118l.5-1.5q5.5-13 15.5-21.5l17-9zM468.5 90q8.8 4.3 14.5 11.5 9.7 11.8 15 28h-1q-6.2-19.7-19.5-32.5l-8-5-1-2zM18.5 119l.5 1.5-6.5 15.5-.5-2.5 6.5-14.5zM500.5 137l1.5 5.5h-1l-.5-5.5zM10.5 140l.5 2.5h-1l.5-2.5zM9.5 144l.5 2.5H9l.5-2.5zM502.5 144l.5 2.5h-1l.5-2.5zM8.5 148l.5 2.5H8l.5-2.5zM503.5 148l.5 2.5h-1l.5-2.5zM7.5 152l.5 3.5H7l.5-3.5zM504.5 152l.5 3.5h-1l.5-3.5zM6.5 157l.5 4.5H6l.5-4.5zM505.5 157l.5 4.5h-1l.5-4.5zM192.5 160L352 255q1.1 2.7-1.5 2l-158 95 1-2L350 257q1.1-2.7-1.5-2l-155-93-1-2zM5.5 163l.5 4.5H5l.5-4.5zM506.5 163l.5 4.5h-1l.5-4.5zM4.5 169l.5 5.5H4l.5-5.5zM507.5 169l.5 5.5h-1l.5-5.5zM3.5 176l.5 6.5H3l.5-6.5zM508.5 176l.5 6.5h-1l.5-6.5zM2.5 185l.5 8.5H2l.5-8.5zM509.5 185l.5 8.5h-1l.5-8.5zM1.5 197l.5 10.5H1l.5-10.5zM510.5 197l.5 10.5h-1l.5-10.5zM.5 213l.5 21.5H0L.5 213zM511.5 213l.5 21.5h-1l.5-21.5zM.5 277l.5 21.5H0L.5 277zM511.5 277l.5 21.5h-1l.5-21.5zM1.5 304l.5 10.5H1l.5-10.5zM510.5 304l.5 10.5h-1l.5-10.5zM2.5 318l.5 8.5H2l.5-8.5zM509.5 318l.5 8.5h-1l.5-8.5zM3.5 329l.5 5.5H3l.5-5.5zM508.5 329l.5 5.5h-1l.5-5.5zM4.5 337l.5 5.5H4l.5-5.5zM507.5 337l.5 5.5h-1l.5-5.5zM5.5 344l.5 4.5H5l.5-4.5zM506.5 344l.5 4.5h-1l.5-4.5zM6.5 350l.5 4.5H6l.5-4.5zM505.5 350l.5 4.5h-1l.5-4.5zM7.5 356l.5 3.5H7l.5-3.5zM504.5 356l.5 3.5h-1l.5-3.5zM8.5 361l.5 2.5H8l.5-2.5zM503.5 361l.5 2.5h-1l.5-2.5zM9.5 365l.5 2.5H9l.5-2.5zM502.5 365l.5 2.5h-1l.5-2.5zM10.5 369l1.5 5.5h-1l-.5-5.5zM501.5 369l.5 2.5-1.5 3.5-.5-2.5 1.5-3.5zM14.5 382q7.4 22.6 24 36l13.5 6.5-1.5.5q-12.7-4.3-20.5-13.5Q19.1 399 14.5 382zM497.5 382l.5 1.5q-7 19.5-20.5 32.5l-14 8v-1q13.9-5.1 21.5-16.5l12.5-24.5zM53.5 425l2.5.5-2.5.5v-1zM456.5 425l2.5.5-2.5.5v-1zM57.5 426l3.5.5-3.5.5v-1zM452.5 426l2.5.5-2.5.5v-1zM62.5 427l4.5.5-4.5.5v-1zM445.5 427l4.5.5-4.5.5v-1zM69.5 428l7.5.5-7.5.5v-1zM435.5 428l8.5.5-8.5.5v-1zM80.5 429l14.5.5-14.5.5v-1zM418.5 429l14.5.5-14.5.5v-1zM102.5 430l29.5.5-29.5.5v-1zM380.5 430l29.5.5-29.5.5v-1zM145.5 431l55.5.5-55.5.5v-1zM311.5 431l56.5.5-56.5.5v-1z"/><path fill="#BB6400" stroke="#BB6400" d="M198.5 80h115l1 1h70l1 1 48 1 1 1 17 1 11 3q11.3 4.2 18.5 12.5 9.3 10.7 15 25l9 31 2 18 1 1v7l1 1 1 24 1 1 1 68-1 1v26l-1 1-1 24-7 40-4 13-8 17q-6.2 11.8-16.5 19.5l-11 6-11 3-16 1-1 1h-16l-1 1-106 1-1 1h-109l-1-1-105-1-1-1-27-1-15-3-11-5L27 406.5l-13-25-6-21-3-17-1-14-1-1v-10l-1-1v-13l-1-1-1-68 1-1v-26l1-1 1-24 1-1v-7l1-1 2-18 4-17 8-21q6.5-13 16.5-22.5l14-8 17-4 27-1 1-1h31l1-1h71l1-1zm-5.5 80v192l158-95q2 1 1-2l-159-95z"/></svg></svg>