<svg width="127" height="46" viewBox="0 0 127 46" fill="none" xmlns="http://www.w3.org/2000/svg">
<path d="M11.22 4.2V18H9.92V5.28H6.62C6.11333 5.28 5.74 5.4 5.5 5.64C5.27333 5.86667 5.14667 6.24 5.12 6.76C5.08 7.64 5.02 8.49333 4.94 9.32C4.87333 10.1333 4.77333 10.9267 4.64 11.7C4.52 12.4733 4.36 13.22 4.16 13.94C3.96 14.66 3.71333 15.36 3.42 16.04C3.14 16.7067 2.8 17.36 2.4 18H1.14C1.82 16.8933 2.34667 15.72 2.72 14.48C3.09333 13.2267 3.36 11.9333 3.52 10.6C3.69333 9.26667 3.80667 7.93333 3.86 6.6C3.88667 5.84 4.12 5.25333 4.56 4.84C5 4.41333 5.61333 4.2 6.4 4.2H11.22ZM1.54 17.86L1.38 21.02H0.46V17.86H1.54ZM12.9 16.92V18H0.46V16.92H12.9ZM12.9 17.86V21.02H12L11.84 17.86H12.9ZM20.1952 3.94C21.1818 3.94 22.0152 4.06667 22.6952 4.32C23.3752 4.56 23.9218 4.96 24.3352 5.52C24.7485 6.06667 25.0485 6.8 25.2352 7.72C25.4218 8.64 25.5152 9.76667 25.5152 11.1C25.5152 12.4333 25.4218 13.56 25.2352 14.48C25.0485 15.4 24.7485 16.14 24.3352 16.7C23.9218 17.2467 23.3752 17.6467 22.6952 17.9C22.0152 18.14 21.1818 18.26 20.1952 18.26C19.2085 18.26 18.3752 18.14 17.6952 17.9C17.0152 17.6467 16.4685 17.2467 16.0552 16.7C15.6418 16.14 15.3352 15.4 15.1352 14.48C14.9485 13.56 14.8552 12.4333 14.8552 11.1C14.8552 9.76667 14.9485 8.64 15.1352 7.72C15.3352 6.8 15.6418 6.06667 16.0552 5.52C16.4685 4.96 17.0152 4.56 17.6952 4.32C18.3752 4.06667 19.2085 3.94 20.1952 3.94ZM20.1952 5.12C19.2085 5.12 18.4218 5.31333 17.8352 5.7C17.2618 6.07333 16.8552 6.69333 16.6152 7.56C16.3752 8.42667 16.2552 9.60667 16.2552 11.1C16.2552 12.5933 16.3752 13.7733 16.6152 14.64C16.8552 15.5067 17.2618 16.1333 17.8352 16.52C18.4218 16.8933 19.2085 17.08 20.1952 17.08C21.1818 17.08 21.9618 16.8933 22.5352 16.52C23.1085 16.1333 23.5152 15.5067 23.7552 14.64C24.0085 13.7733 24.1352 12.5933 24.1352 11.1C24.1352 9.60667 24.0085 8.42667 23.7552 7.56C23.5152 6.69333 23.1085 6.07333 22.5352 5.7C21.9618 5.31333 21.1818 5.12 20.1952 5.12ZM41.5155 4.2C41.8888 4.2 42.0755 4.39333 42.0755 4.78L42.6755 18H41.3555L40.8155 5.3H40.3755L36.7755 16.12C36.6955 16.4133 36.5021 16.56 36.1955 16.56H34.8755C34.5688 16.56 34.3688 16.4133 34.2755 16.12L30.6955 5.3H30.2555L29.7355 18H28.4155L28.9755 4.78C29.0021 4.39333 29.2021 4.2 29.5755 4.2H31.1555C31.4488 4.2 31.6355 4.35333 31.7155 4.66L34.7355 13.66C34.8555 13.9667 34.9555 14.28 35.0355 14.6C35.1288 14.9067 35.2288 15.22 35.3355 15.54H35.7555C35.8488 15.22 35.9421 14.9067 36.0355 14.6C36.1288 14.28 36.2288 13.9533 36.3355 13.62L39.3555 4.66C39.4355 4.35333 39.6288 4.2 39.9355 4.2H41.5155ZM51.1383 4.2C51.2583 4.2 51.3649 4.23333 51.4583 4.3C51.5649 4.36667 51.6316 4.46 51.6583 4.58L56.2783 18H54.9183L51.0383 6.36C50.9849 6.17333 50.9249 5.98667 50.8583 5.8C50.7916 5.6 50.7316 5.41333 50.6783 5.24H50.0983C50.0449 5.41333 49.9849 5.6 49.9183 5.8C49.8649 5.98667 49.8049 6.17333 49.7383 6.36L45.8583 18H44.4983L49.1183 4.58C49.1583 4.46 49.2249 4.36667 49.3183 4.3C49.4116 4.23333 49.5183 4.2 49.6383 4.2H51.1383ZM53.8783 12.28V13.42H46.8783V12.28H53.8783ZM73.063 4.2V18H71.783V4.2H73.063ZM59.683 4.2V18H58.403V4.2H59.683ZM72.203 16.92V18H59.523L59.503 16.92H72.203ZM66.363 4.2V18H65.103V4.2H66.363ZM78.0819 4.2V18H76.7819V4.2H78.0819ZM85.2619 10.04V11.18H77.9219V10.04H85.2619ZM86.3419 4.2V18H85.0419V4.2H86.3419ZM100.083 4.2V18H98.8031V7.38C98.8031 7.12667 98.8031 6.87333 98.8031 6.62C98.8165 6.36667 98.8365 6.12 98.8631 5.88H98.8031C98.6965 6.10667 98.5765 6.34 98.4431 6.58C98.3231 6.82 98.2031 7.04667 98.0831 7.26L91.3831 18H90.0631V4.2H91.3231V14.74C91.3231 15.0067 91.3165 15.2733 91.3031 15.54C91.2898 15.7933 91.2765 16.0467 91.2631 16.3H91.3231C91.4298 16.0733 91.5565 15.8333 91.7031 15.58C91.8498 15.3267 91.9831 15.0867 92.1031 14.86L98.7231 4.2H100.083ZM113.794 4.2V18H112.514V7.38C112.514 7.12667 112.514 6.87333 112.514 6.62C112.527 6.36667 112.547 6.12 112.574 5.88H112.514C112.407 6.10667 112.287 6.34 112.154 6.58C112.034 6.82 111.914 7.04667 111.794 7.26L105.094 18H103.774V4.2H105.034V14.74C105.034 15.0067 105.027 15.2733 105.014 15.54C105.001 15.7933 104.987 16.0467 104.974 16.3H105.034C105.141 16.0733 105.267 15.8333 105.414 15.58C105.561 15.3267 105.694 15.0867 105.814 14.86L112.434 4.2H113.794ZM110.714 0.399999H111.734C111.761 0.906665 111.654 1.36 111.414 1.76C111.187 2.16 110.854 2.47333 110.414 2.7C109.987 2.92667 109.467 3.04 108.854 3.04C108.241 3.04 107.707 2.92667 107.254 2.7C106.814 2.47333 106.474 2.16 106.234 1.76C106.007 1.36 105.907 0.906665 105.934 0.399999H106.934C106.934 0.999999 107.107 1.46667 107.454 1.8C107.801 2.13333 108.267 2.3 108.854 2.3C109.427 2.3 109.881 2.13333 110.214 1.8C110.547 1.46667 110.714 0.999999 110.714 0.399999Z" fill="#A6600F"/>
<path d="M4.76 28.04C5.86667 28.04 6.74667 28.1467 7.4 28.36C8.05333 28.56 8.52667 28.92 8.82 29.44C9.11333 29.96 9.26 30.6933 9.26 31.64C9.26 32.6267 9.08 33.38 8.72 33.9C8.36 34.42 7.76667 34.72 6.94 34.8V34.88C7.96667 34.9733 8.67333 35.3333 9.06 35.96C9.46 36.5867 9.66 37.4533 9.66 38.56C9.66 39.5067 9.51333 40.24 9.22 40.76C8.94 41.28 8.48667 41.6467 7.86 41.86C7.23333 42.06 6.4 42.16 5.36 42.16C4.77333 42.16 4.21333 42.1467 3.68 42.12C3.14667 42.0933 2.64 42.0533 2.16 42C1.68 41.9467 1.22 41.8733 0.78 41.78L0.9 40.82C1.34 40.86 1.93333 40.9133 2.68 40.98C3.42667 41.0333 4.26 41.06 5.18 41.06C5.95333 41.06 6.56667 40.9933 7.02 40.86C7.47333 40.7133 7.8 40.4467 8 40.06C8.21333 39.66 8.32 39.0933 8.32 38.36C8.32 37.5867 8.21333 36.9867 8 36.56C7.78667 36.12 7.44 35.8133 6.96 35.64C6.48 35.4533 5.83333 35.36 5.02 35.36H2.8V34.34H5.02C5.74 34.34 6.31333 34.2667 6.74 34.12C7.16667 33.9733 7.47333 33.7133 7.66 33.34C7.84667 32.9667 7.94 32.44 7.94 31.76C7.94 31.0533 7.83333 30.5133 7.62 30.14C7.42 29.7533 7.08 29.4933 6.6 29.36C6.13333 29.2133 5.49333 29.14 4.68 29.14C3.90667 29.14 3.22 29.1667 2.62 29.22C2.03333 29.26 1.56 29.3 1.2 29.34L1.08 28.34C1.69333 28.2333 2.28 28.16 2.84 28.12C3.41333 28.0667 4.05333 28.04 4.76 28.04ZM17.857 28.2C17.977 28.2 18.0837 28.2333 18.177 28.3C18.2837 28.3667 18.3504 28.46 18.377 28.58L22.997 42H21.637L17.757 30.36C17.7037 30.1733 17.6437 29.9867 17.577 29.8C17.5104 29.6 17.4504 29.4133 17.397 29.24H16.817C16.7637 29.4133 16.7037 29.6 16.637 29.8C16.5837 29.9867 16.5237 30.1733 16.457 30.36L12.577 42H11.217L15.837 28.58C15.877 28.46 15.9437 28.3667 16.037 28.3C16.1304 28.2333 16.237 28.2 16.357 28.2H17.857ZM20.597 36.28V37.42H13.597V36.28H20.597ZM27.4217 28.18C28.3817 28.18 29.3417 28.1867 30.3017 28.2C31.2751 28.2133 32.2151 28.2467 33.1217 28.3L33.0617 29.32H27.8217C27.3551 29.32 26.9951 29.4467 26.7417 29.7C26.4884 29.94 26.3617 30.3067 26.3617 30.8V42H25.0617V30.58C25.0617 29.8733 25.2817 29.3 25.7217 28.86C26.1751 28.4067 26.7417 28.18 27.4217 28.18ZM39.8436 27.94C40.8303 27.94 41.6636 28.0667 42.3436 28.32C43.0236 28.56 43.5703 28.96 43.9836 29.52C44.3969 30.0667 44.6969 30.8 44.8836 31.72C45.0703 32.64 45.1636 33.7667 45.1636 35.1C45.1636 36.4333 45.0703 37.56 44.8836 38.48C44.6969 39.4 44.3969 40.14 43.9836 40.7C43.5703 41.2467 43.0236 41.6467 42.3436 41.9C41.6636 42.14 40.8303 42.26 39.8436 42.26C38.8569 42.26 38.0236 42.14 37.3436 41.9C36.6636 41.6467 36.1169 41.2467 35.7036 40.7C35.2903 40.14 34.9836 39.4 34.7836 38.48C34.5969 37.56 34.5036 36.4333 34.5036 35.1C34.5036 33.7667 34.5969 32.64 34.7836 31.72C34.9836 30.8 35.2903 30.0667 35.7036 29.52C36.1169 28.96 36.6636 28.56 37.3436 28.32C38.0236 28.0667 38.8569 27.94 39.8436 27.94ZM39.8436 29.12C38.8569 29.12 38.0703 29.3133 37.4836 29.7C36.9103 30.0733 36.5036 30.6933 36.2636 31.56C36.0236 32.4267 35.9036 33.6067 35.9036 35.1C35.9036 36.5933 36.0236 37.7733 36.2636 38.64C36.5036 39.5067 36.9103 40.1333 37.4836 40.52C38.0703 40.8933 38.8569 41.08 39.8436 41.08C40.8303 41.08 41.6103 40.8933 42.1836 40.52C42.7569 40.1333 43.1636 39.5067 43.4036 38.64C43.6569 37.7733 43.7836 36.5933 43.7836 35.1C43.7836 33.6067 43.6569 32.4267 43.4036 31.56C43.1636 30.6933 42.7569 30.0733 42.1836 29.7C41.6103 29.3133 40.8303 29.12 39.8436 29.12ZM52.5133 28.2V42H51.1933V28.2H52.5133ZM57.1133 28.2V29.36H46.6133V28.2H57.1133ZM63.8866 27.94C64.8732 27.94 65.7066 28.0667 66.3866 28.32C67.0666 28.56 67.6132 28.96 68.0266 29.52C68.4399 30.0667 68.7399 30.8 68.9266 31.72C69.1132 32.64 69.2066 33.7667 69.2066 35.1C69.2066 36.4333 69.1132 37.56 68.9266 38.48C68.7399 39.4 68.4399 40.14 68.0266 40.7C67.6132 41.2467 67.0666 41.6467 66.3866 41.9C65.7066 42.14 64.8732 42.26 63.8866 42.26C62.8999 42.26 62.0666 42.14 61.3866 41.9C60.7066 41.6467 60.1599 41.2467 59.7466 40.7C59.3332 40.14 59.0266 39.4 58.8266 38.48C58.6399 37.56 58.5466 36.4333 58.5466 35.1C58.5466 33.7667 58.6399 32.64 58.8266 31.72C59.0266 30.8 59.3332 30.0667 59.7466 29.52C60.1599 28.96 60.7066 28.56 61.3866 28.32C62.0666 28.0667 62.8999 27.94 63.8866 27.94ZM63.8866 29.12C62.8999 29.12 62.1132 29.3133 61.5266 29.7C60.9532 30.0733 60.5466 30.6933 60.3066 31.56C60.0666 32.4267 59.9466 33.6067 59.9466 35.1C59.9466 36.5933 60.0666 37.7733 60.3066 38.64C60.5466 39.5067 60.9532 40.1333 61.5266 40.52C62.1132 40.8933 62.8999 41.08 63.8866 41.08C64.8732 41.08 65.6532 40.8933 66.2266 40.52C66.7999 40.1333 67.2066 39.5067 67.4466 38.64C67.6999 37.7733 67.8266 36.5933 67.8266 35.1C67.8266 33.6067 67.6999 32.4267 67.4466 31.56C67.2066 30.6933 66.7999 30.0733 66.2266 29.7C65.6532 29.3133 64.8732 29.12 63.8866 29.12ZM76.6669 28.04C77.7869 28.04 78.6735 28.1467 79.3269 28.36C79.9935 28.56 80.4735 28.92 80.7669 29.44C81.0602 29.96 81.2069 30.6933 81.2069 31.64C81.2069 32.6267 81.0202 33.38 80.6469 33.9C80.2869 34.42 79.6935 34.72 78.8669 34.8V34.88C79.8935 34.9733 80.6069 35.3333 81.0069 35.96C81.4202 36.5867 81.6269 37.4533 81.6269 38.56C81.6269 39.5067 81.4802 40.24 81.1869 40.76C80.9069 41.28 80.4469 41.6467 79.8069 41.86C79.1669 42.06 78.3269 42.16 77.2869 42.16C76.5269 42.16 75.8735 42.1533 75.3269 42.14C74.7935 42.14 74.3002 42.1267 73.8469 42.1C73.3935 42.0733 72.9135 42.04 72.4069 42L72.6869 40.96C72.9669 40.9733 73.5069 40.9867 74.3069 41C75.1069 41.0133 76.0402 41.02 77.1069 41.02C77.9069 41.02 78.5335 40.9533 78.9869 40.82C79.4535 40.6733 79.7869 40.4133 79.9869 40.04C80.1869 39.6533 80.2869 39.0933 80.2869 38.36C80.2869 37.5733 80.1802 36.9667 79.9669 36.54C79.7669 36.1133 79.4202 35.8133 78.9269 35.64C78.4469 35.4667 77.7869 35.3733 76.9469 35.36H72.6669V34.34H76.9469C77.6802 34.3267 78.2602 34.2533 78.6869 34.12C79.1269 33.9733 79.4402 33.7133 79.6269 33.34C79.8269 32.9667 79.9269 32.44 79.9269 31.76C79.9269 31.0533 79.8202 30.5133 79.6069 30.14C79.4069 29.7667 79.0602 29.5133 78.5669 29.38C78.0869 29.2467 77.4335 29.18 76.6069 29.18C75.9802 29.18 75.4135 29.18 74.9069 29.18C74.4002 29.18 73.9602 29.1867 73.5869 29.2C73.2135 29.2 72.9135 29.2133 72.6869 29.24L72.4069 28.2C72.8469 28.1467 73.2669 28.1133 73.6669 28.1C74.0669 28.0733 74.5002 28.06 74.9669 28.06C75.4469 28.0467 76.0135 28.04 76.6669 28.04ZM73.6869 28.2V42H72.4069V28.2H73.6869ZM86.0306 28.2V42H84.7506V28.2H86.0306ZM100.931 40.92V42H85.8706L85.8506 40.92H100.931ZM92.6506 28.2V42H91.3506V28.2H92.6506ZM99.2506 28.2V42H97.9906V28.2H99.2506ZM100.931 41.86V45.02H100.031L99.8706 41.86H100.931ZM113.482 28.2V42H112.202V31.38C112.202 31.1267 112.202 30.8733 112.202 30.62C112.215 30.3667 112.235 30.12 112.262 29.88H112.202C112.095 30.1067 111.975 30.34 111.842 30.58C111.722 30.82 111.602 31.0467 111.482 31.26L104.782 42H103.462V28.2H104.722V38.74C104.722 39.0067 104.715 39.2733 104.702 39.54C104.688 39.7933 104.675 40.0467 104.662 40.3H104.722C104.828 40.0733 104.955 39.8333 105.102 39.58C105.248 39.3267 105.382 39.0867 105.502 38.86L112.122 28.2H113.482ZM126.073 28.2C125.806 28.9333 125.546 29.6267 125.293 30.28C125.039 30.92 124.779 31.5067 124.513 32.04C124.259 32.56 123.979 33.0133 123.673 33.4C123.379 33.7867 123.053 34.1 122.693 34.34C122.333 34.58 121.919 34.72 121.453 34.76V34.84C121.973 34.88 122.426 35.0267 122.813 35.28C123.213 35.52 123.566 35.8533 123.873 36.28C124.179 36.7067 124.466 37.2133 124.733 37.8C125.013 38.3733 125.286 39.0133 125.553 39.72C125.819 40.4267 126.106 41.1867 126.413 42H125.033C124.646 41 124.293 40.0933 123.973 39.28C123.666 38.4667 123.333 37.7667 122.973 37.18C122.626 36.58 122.219 36.1267 121.753 35.82C121.299 35.5 120.733 35.34 120.053 35.34L120.073 34.28C120.699 34.2667 121.233 34.1 121.673 33.78C122.126 33.4467 122.526 33 122.873 32.44C123.219 31.8667 123.539 31.22 123.833 30.5C124.126 29.78 124.419 29.0133 124.713 28.2H126.073ZM118.453 28.2V32.66C118.453 33.0467 118.439 33.4067 118.413 33.74C118.386 34.0733 118.346 34.42 118.293 34.78C118.333 35.1533 118.366 35.5133 118.393 35.86C118.433 36.2067 118.453 36.5533 118.453 36.9V42H117.173V28.2H118.453ZM120.753 34.28V35.34H118.013V34.28H120.753Z" fill="white"/>
</svg>
